Nokyung-B.ufo
<glyph name="exclam" format="1">
  <advance width="412"/>
  <unicode hex="0021"/>
  <outline>
    <contour>
      <point x="160" y="103" type="curve" smooth="yes"/>
      <point x="160" y="175"/>
      <point x="204" y="220"/>
      <point x="276" y="220" type="curve" smooth="yes"/>
      <point x="350" y="220"/>
      <point x="399" y="175"/>
      <point x="399" y="103" type="curve" smooth="yes"/>
      <point x="399" y="30"/>
      <point x="350" y="-19"/>
      <point x="276" y="-19" type="curve" smooth="yes"/>
      <point x="204" y="-19"/>
      <point x="160" y="30"/>
    </contour>
    <contour>
      <point x="311" y="315" type="curve" smooth="yes"/>
      <point x="310" y="305"/>
      <point x="304" y="295"/>
      <point x="293" y="295" type="curve" smooth="yes"/>
      <point x="263" y="295" type="line" smooth="yes"/>
      <point x="254" y="295"/>
      <point x="247" y="305"/>
      <point x="246" y="315" type="curve" smooth="yes"/>
      <point x="246" y="315"/>
      <point x="186" y="713"/>
      <point x="166" y="850" type="curve" smooth="yes"/>
      <point x="156" y="921"/>
      <point x="204" y="970"/>
      <point x="276" y="970" type="curve" smooth="yes"/>
      <point x="350" y="970"/>
      <point x="401" y="921"/>
      <point x="391" y="850" type="curve" smooth="yes"/>
      <point x="371" y="713"/>
      <point x="311" y="315"/>
    </contour>
  </outline>
</glyph>
<glyph name="numbersign" format="1">
  <advance width="1140"/>
  <unicode hex="0023"/>
  <outline>
    <contour>
      <point x="1100" y="516" type="curve" smooth="yes"/>
      <point x="1100" y="483"/>
      <point x="1096" y="466"/>
      <point x="1088" y="466" type="curve" smooth="yes"/>
      <point x="794" y="466" type="line"/>
      <point x="698" y="-7" type="line" smooth="yes"/>
      <point x="697" y="-14"/>
      <point x="679" y="-17"/>
      <point x="646" y="-17" type="curve" smooth="yes"/>
      <point x="611" y="-17"/>
      <point x="594" y="-14"/>
      <point x="595" y="-7" type="curve" smooth="yes"/>
      <point x="689" y="466" type="line"/>
      <point x="331" y="466" type="line"/>
      <point x="236" y="-7" type="line" smooth="yes"/>
      <point x="235" y="-14"/>
      <point x="217" y="-17"/>
      <point x="184" y="-17" type="curve" smooth="yes"/>
      <point x="149" y="-17"/>
      <point x="132" y="-14"/>
      <point x="133" y="-7" type="curve" smooth="yes"/>
      <point x="228" y="466" type="line"/>
      <point x="52" y="466" type="line" smooth="yes"/>
      <point x="44" y="466"/>
      <point x="40" y="482"/>
      <point x="40" y="514" type="curve" smooth="yes"/>
      <point x="40" y="547"/>
      <point x="44" y="564"/>
      <point x="52" y="564" type="curve" smooth="yes"/>
      <point x="249" y="564" type="line"/>
      <point x="327" y="949" type="line"/>
      <point x="52" y="949" type="line" smooth="yes"/>
      <point x="44" y="949"/>
      <point x="40" y="965"/>
      <point x="40" y="997" type="curve" smooth="yes"/>
      <point x="40" y="1030"/>
      <point x="44" y="1047"/>
      <point x="52" y="1047" type="curve" smooth="yes"/>
      <point x="350" y="1047" type="line"/>
      <point x="446" y="1533" type="line" smooth="yes"/>
      <point x="447" y="1540"/>
      <point x="464" y="1543"/>
      <point x="496" y="1543" type="curve" smooth="yes"/>
      <point x="531" y="1543"/>
      <point x="547" y="1540"/>
      <point x="546" y="1533" type="curve" smooth="yes"/>
      <point x="452" y="1047" type="line"/>
      <point x="810" y="1047" type="line"/>
      <point x="912" y="1533" type="line" smooth="yes"/>
      <point x="913" y="1540"/>
      <point x="930" y="1543"/>
      <point x="962" y="1543" type="curve" smooth="yes"/>
      <point x="997" y="1543"/>
      <point x="1013" y="1540"/>
      <point x="1012" y="1533" type="curve" smooth="yes"/>
      <point x="911" y="1047" type="line"/>
      <point x="1088" y="1047" type="line" smooth="yes"/>
      <point x="1096" y="1047"/>
      <point x="1100" y="1031"/>
      <point x="1100" y="999" type="curve" smooth="yes"/>
      <point x="1100" y="966"/>
      <point x="1096" y="949"/>
      <point x="1088" y="949" type="curve" smooth="yes"/>
      <point x="894" y="949" type="line"/>
      <point x="814" y="564" type="line"/>
      <point x="1088" y="564" type="line" smooth="yes"/>
      <point x="1096" y="564"/>
      <point x="1100" y="548"/>
    </contour>
    <contour>
      <point x="710" y="564" type="line"/>
      <point x="790" y="949" type="line"/>
      <point x="431" y="949" type="line"/>
      <point x="351" y="564" type="line"/>
    </contour>
  </outline>
</glyph>
<glyph name="five" format="1">
  <advance width="956"/>
  <unicode hex="0035"/>
  <outline>
    <contour>
      <point x="876" y="468" type="curve" smooth="yes"/>
      <point x="876" y="313"/>
      <point x="837" y="193"/>
      <point x="760" y="106" type="curve" smooth="yes"/>
      <point x="687" y="24"/>
      <point x="589" y="-17"/>
      <point x="466" y="-17" type="curve" smooth="yes"/>
      <point x="313" y="-17"/>
      <point x="194" y="36"/>
      <point x="108" y="142" type="curve" smooth="yes"/>
      <point x="97" y="155"/>
      <point x="104" y="178"/>
      <point x="129" y="210" type="curve" smooth="yes"/>
      <point x="150" y="237"/>
      <point x="165" y="251"/>
      <point x="175" y="251" type="curve"/>
      <point x="178" y="250"/>
      <point x="180" y="249"/>
      <point x="181" y="247" type="curve" smooth="yes"/>
      <point x="204" y="200"/>
      <point x="239" y="159"/>
      <point x="287" y="123" type="curve" smooth="yes"/>
      <point x="338" y="84"/>
      <point x="387" y="64"/>
      <point x="434" y="64" type="curve" smooth="yes"/>
      <point x="639" y="64"/>
      <point x="742" y="206"/>
      <point x="742" y="490" type="curve" smooth="yes"/>
      <point x="742" y="616"/>
      <point x="715" y="716"/>
      <point x="661" y="791" type="curve" smooth="yes"/>
      <point x="613" y="858"/>
      <point x="555" y="891"/>
      <point x="488" y="891" type="curve" smooth="yes"/>
      <point x="430" y="891"/>
      <point x="381" y="877"/>
      <point x="342" y="848" type="curve" smooth="yes"/>
      <point x="303" y="820"/>
      <point x="276" y="806"/>
      <point x="263" y="806" type="curve" smooth="yes"/>
      <point x="252" y="806"/>
      <point x="229" y="817"/>
      <point x="195" y="838" type="curve" smooth="yes"/>
      <point x="161" y="860"/>
      <point x="144" y="875"/>
      <point x="144" y="883" type="curve" smooth="yes"/>
      <point x="144" y="886"/>
      <point x="144" y="888"/>
      <point x="145" y="890" type="curve" smooth="yes"/>
      <point x="155" y="922"/>
      <point x="172" y="1021"/>
      <point x="197" y="1186" type="curve"/>
      <point x="220" y="1346"/>
      <point x="232" y="1438"/>
      <point x="232" y="1462" type="curve" smooth="yes"/>
      <point x="232" y="1481"/>
      <point x="246" y="1491"/>
      <point x="275" y="1491" type="curve" smooth="yes"/>
      <point x="628" y="1491" type="line" smooth="yes"/>
      <point x="728" y="1491"/>
      <point x="789" y="1487"/>
      <point x="812" y="1478" type="curve" smooth="yes"/>
      <point x="819" y="1475"/>
      <point x="822" y="1467"/>
      <point x="821" y="1453" type="curve" smooth="yes"/>
      <point x="821" y="1444"/>
      <point x="819" y="1429"/>
      <point x="815" y="1409" type="curve" smooth="yes"/>
      <point x="808" y="1364"/>
      <point x="798" y="1344"/>
      <point x="787" y="1350" type="curve" smooth="yes"/>
      <point x="723" y="1384"/>
      <point x="672" y="1401"/>
      <point x="634" y="1401" type="curve" smooth="yes"/>
      <point x="381" y="1401" type="line" smooth="yes"/>
      <point x="360" y="1401"/>
      <point x="349" y="1395"/>
      <point x="346" y="1382" type="curve" smooth="yes"/>
      <point x="323" y="1270"/>
      <point x="301" y="1125"/>
      <point x="280" y="948" type="curve" smooth="yes"/>
      <point x="279" y="935"/>
      <point x="280" y="928"/>
      <point x="285" y="926" type="curve"/>
      <point x="288" y="926"/>
      <point x="311" y="933"/>
      <point x="354" y="947" type="curve" smooth="yes"/>
      <point x="397" y="962"/>
      <point x="444" y="969"/>
      <point x="497" y="969" type="curve" smooth="yes"/>
      <point x="609" y="969"/>
      <point x="698" y="929"/>
      <point x="765" y="849" type="curve" smooth="yes"/>
      <point x="839" y="760"/>
      <point x="876" y="633"/>
    </contour>
  </outline>
</glyph>
<glyph name="A" format="1">
  <advance width="1472"/>
  <unicode hex="0041"/>
  <outline>
    <contour>
      <point x="1456" y="37" type="curve"/>
      <point x="1456" y="0" type="line"/>
      <point x="922" y="0" type="line"/>
      <point x="922" y="37" type="line"/>
      <point x="1013" y="39"/>
      <point x="1059" y="68"/>
      <point x="1059" y="124" type="curve" smooth="yes"/>
      <point x="1059" y="150"/>
      <point x="1046" y="195"/>
      <point x="1019" y="260" type="curve" smooth="yes"/>
      <point x="938" y="455" type="line"/>
      <point x="412" y="455" type="line"/>
      <point x="319" y="238" type="line" smooth="yes"/>
      <point x="297" y="186"/>
      <point x="286" y="149"/>
      <point x="286" y="126" type="curve" smooth="yes"/>
      <point x="286" y="76"/>
      <point x="338" y="46"/>
      <point x="443" y="37" type="curve"/>
      <point x="443" y="0" type="line"/>
      <point x="16" y="0" type="line"/>
      <point x="16" y="37" type="line"/>
      <point x="69" y="41"/>
      <point x="113" y="62"/>
      <point x="147" y="101" type="curve" smooth="yes"/>
      <point x="174" y="132"/>
      <point x="205" y="189"/>
      <point x="240" y="270" type="curve" smooth="yes"/>
      <point x="717" y="1387" type="line"/>
      <point x="753" y="1387" type="line"/>
      <point x="1223" y="260" type="line" smooth="yes"/>
      <point x="1262" y="169"/>
      <point x="1296" y="109"/>
      <point x="1327" y="81" type="curve" smooth="yes"/>
      <point x="1354" y="56"/>
      <point x="1397" y="42"/>
    </contour>
    <contour>
      <point x="443" y="528" type="line"/>
      <point x="910" y="528" type="line"/>
      <point x="680" y="1078" type="line"/>
    </contour>
  </outline>
</glyph>
<glyph name="J" format="1">
  <advance width="798"/>
  <unicode hex="004A"/>
  <outline>
    <contour>
      <point x="784" y="1355" type="line"/>
      <point x="784" y="1320" type="line"/>
      <point x="735" y="1320" type="line" smooth="yes"/>
      <point x="684" y="1320"/>
      <point x="644" y="1304"/>
      <point x="615" y="1271" type="curve"/>
      <point x="599" y="1249"/>
      <point x="591" y="1198"/>
      <point x="591" y="1117" type="curve" smooth="yes"/>
      <point x="591" y="453" type="line" smooth="yes"/>
      <point x="591" y="270"/>
      <point x="549" y="137"/>
      <point x="464" y="55" type="curve" smooth="yes"/>
      <point x="405" y="-3"/>
      <point x="331" y="-32"/>
      <point x="244" y="-32" type="curve" smooth="yes"/>
      <point x="181" y="-32"/>
      <point x="131" y="-16"/>
      <point x="94" y="16" type="curve" smooth="yes"/>
      <point x="60" y="45"/>
      <point x="43" y="81"/>
      <point x="43" y="122" type="curve" smooth="yes"/>
      <point x="43" y="192"/>
      <point x="77" y="227"/>
      <point x="144" y="227" type="curve" smooth="yes"/>
      <point x="188" y="227"/>
      <point x="223" y="196"/>
      <point x="249" y="133" type="curve" smooth="yes"/>
      <point x="276" y="70"/>
      <point x="301" y="39"/>
      <point x="325" y="39" type="curve" smooth="yes"/>
      <point x="375" y="39"/>
      <point x="400" y="90"/>
      <point x="400" y="191" type="curve" smooth="yes"/>
      <point x="400" y="1117" type="line" smooth="yes"/>
      <point x="400" y="1194"/>
      <point x="393" y="1243"/>
      <point x="380" y="1265" type="curve" smooth="yes"/>
      <point x="359" y="1302"/>
      <point x="316" y="1320"/>
      <point x="252" y="1320" type="curve" smooth="yes"/>
      <point x="205" y="1320" type="line"/>
      <point x="205" y="1355" type="line"/>
    </contour>
  </outline>
</glyph>
<glyph name="L" format="1">
  <advance width="1251"/>
  <unicode hex="004C"/>
  <outline>
    <contour>
      <point x="1174" y="374" type="curve"/>
      <point x="1210" y="368" type="line"/>
      <point x="1091" y="0" type="line"/>
      <point x="37" y="0" type="line"/>
      <point x="37" y="37" type="line"/>
      <point x="107" y="37"/>
      <point x="156" y="47"/>
      <point x="183" y="66" type="curve" smooth="yes"/>
      <point x="218" y="91"/>
      <point x="236" y="138"/>
      <point x="236" y="207" type="curve" smooth="yes"/>
      <point x="236" y="1149" type="line" smooth="yes"/>
      <point x="236" y="1218"/>
      <point x="218" y="1265"/>
      <point x="183" y="1289" type="curve" smooth="yes"/>
      <point x="156" y="1308"/>
      <point x="107" y="1318"/>
      <point x="37" y="1318" type="curve"/>
      <point x="37" y="1355" type="line"/>
      <point x="627" y="1355" type="line"/>
      <point x="627" y="1318" type="line"/>
      <point x="557" y="1318"/>
      <point x="508" y="1308"/>
      <point x="481" y="1289" type="curve" smooth="yes"/>
      <point x="446" y="1265"/>
      <point x="428" y="1218"/>
      <point x="428" y="1149" type="curve" smooth="yes"/>
      <point x="428" y="256" type="line" smooth="yes"/>
      <point x="428" y="186"/>
      <point x="440" y="140"/>
      <point x="464" y="117" type="curve" smooth="yes"/>
      <point x="486" y="97"/>
      <point x="530" y="87"/>
      <point x="597" y="87" type="curve" smooth="yes"/>
      <point x="735" y="87" type="line" smooth="yes"/>
      <point x="881" y="87"/>
      <point x="977" y="107"/>
      <point x="1023" y="146" type="curve" smooth="yes"/>
      <point x="1080" y="195"/>
      <point x="1130" y="271"/>
    </contour>
  </outline>
</glyph>
<glyph name="Q" format="1">
  <advance width="1480"/>
  <unicode hex="0051"/>
  <outline>
    <contour>
      <point x="1401" y="678" type="curve" smooth="yes"/>
      <point x="1401" y="513"/>
      <point x="1355" y="368"/>
      <point x="1264" y="242" type="curve" smooth="yes"/>
      <point x="1173" y="117"/>
      <point x="1053" y="31"/>
      <point x="902" y="-14" type="curve"/>
      <point x="1031" y="-235"/>
      <point x="1194" y="-353"/>
      <point x="1393" y="-368" type="curve"/>
      <point x="1393" y="-402" type="line"/>
      <point x="1239" y="-395"/>
      <point x="1081" y="-353"/>
      <point x="920" y="-274" type="curve" smooth="yes"/>
      <point x="770" y="-201"/>
      <point x="649" y="-115"/>
      <point x="558" y="-14" type="curve"/>
      <point x="233" y="100"/>
      <point x="71" y="331"/>
      <point x="71" y="680" type="curve" smooth="yes"/>
      <point x="71" y="883"/>
      <point x="136" y="1052"/>
      <point x="265" y="1186" type="curve" smooth="yes"/>
      <point x="395" y="1320"/>
      <point x="556" y="1387"/>
      <point x="747" y="1387" type="curve" smooth="yes"/>
      <point x="930" y="1387"/>
      <point x="1084" y="1321"/>
      <point x="1209" y="1188" type="curve" smooth="yes"/>
      <point x="1337" y="1052"/>
      <point x="1401" y="882"/>
    </contour>
    <contour>
      <point x="1172" y="652" type="curve" smooth="yes"/>
      <point x="1172" y="857"/>
      <point x="1135" y="1017"/>
      <point x="1060" y="1133" type="curve" smooth="yes"/>
      <point x="983" y="1252"/>
      <point x="874" y="1312"/>
      <point x="733" y="1312" type="curve" smooth="yes"/>
      <point x="598" y="1312"/>
      <point x="492" y="1258"/>
      <point x="417" y="1150" type="curve" smooth="yes"/>
      <point x="340" y="1040"/>
      <point x="301" y="883"/>
      <point x="301" y="680" type="curve" smooth="yes"/>
      <point x="301" y="485"/>
      <point x="338" y="331"/>
      <point x="412" y="217" type="curve" smooth="yes"/>
      <point x="489" y="98"/>
      <point x="596" y="38"/>
      <point x="733" y="37" type="curve" smooth="yes"/>
      <point x="872" y="36"/>
      <point x="980" y="90"/>
      <point x="1057" y="199" type="curve" smooth="yes"/>
      <point x="1134" y="308"/>
      <point x="1172" y="459"/>
    </contour>
  </outline>
</glyph>
<glyph name="X" format="1">
  <advance width="1480"/>
  <unicode hex="0058"/>
  <outline>
    <contour>
      <point x="1454" y="37" type="curve"/>
      <point x="1454" y="0" type="line"/>
      <point x="873" y="0" type="line"/>
      <point x="873" y="37" type="line"/>
      <point x="936" y="37"/>
      <point x="976" y="50"/>
      <point x="993" y="75" type="curve" smooth="yes"/>
      <point x="1004" y="90"/>
      <point x="1009" y="103"/>
      <point x="1009" y="115" type="curve" smooth="yes"/>
      <point x="1009" y="136"/>
      <point x="987" y="180"/>
      <point x="942" y="248" type="curve" smooth="yes"/>
      <point x="713" y="597" type="line"/>
      <point x="428" y="232" type="line" smooth="yes"/>
      <point x="387" y="181"/>
      <point x="366" y="141"/>
      <point x="366" y="114" type="curve" smooth="yes"/>
      <point x="366" y="66"/>
      <point x="409" y="40"/>
      <point x="496" y="37" type="curve"/>
      <point x="496" y="0" type="line"/>
      <point x="14" y="0" type="line"/>
      <point x="14" y="37" type="line"/>
      <point x="121" y="41"/>
      <point x="233" y="116"/>
      <point x="349" y="262" type="curve" smooth="yes"/>
      <point x="670" y="668" type="line"/>
      <point x="402" y="1060" type="line" smooth="yes"/>
      <point x="334" y="1159"/>
      <point x="273" y="1227"/>
      <point x="220" y="1264" type="curve" smooth="yes"/>
      <point x="172" y="1297"/>
      <point x="113" y="1316"/>
      <point x="43" y="1320" type="curve"/>
      <point x="43" y="1355" type="line"/>
      <point x="670" y="1355" type="line"/>
      <point x="670" y="1320" type="line"/>
      <point x="566" y="1316"/>
      <point x="529" y="1279"/>
      <point x="529" y="1242" type="curve" smooth="yes"/>
      <point x="529" y="1218"/>
      <point x="545" y="1182"/>
      <point x="577" y="1135" type="curve" smooth="yes"/>
      <point x="786" y="824" type="line"/>
      <point x="1026" y="1129" type="line" smooth="yes"/>
      <point x="1068" y="1182"/>
      <point x="1089" y="1221"/>
      <point x="1089" y="1248" type="curve" smooth="yes"/>
      <point x="1089" y="1260"/>
      <point x="1085" y="1271"/>
      <point x="1078" y="1281" type="curve" smooth="yes"/>
      <point x="1059" y="1306"/>
      <point x="1013" y="1319"/>
      <point x="942" y="1320" type="curve"/>
      <point x="942" y="1355" type="line"/>
      <point x="1424" y="1355" type="line"/>
      <point x="1424" y="1320" type="line"/>
      <point x="1356" y="1315"/>
      <point x="1300" y="1295"/>
      <point x="1255" y="1260" type="curve" smooth="yes"/>
      <point x="1224" y="1236"/>
      <point x="1175" y="1181"/>
      <point x="1107" y="1095" type="curve" smooth="yes"/>
      <point x="835" y="753" type="line"/>
      <point x="1127" y="317" type="line" smooth="yes"/>
      <point x="1205" y="200"/>
      <point x="1265" y="125"/>
      <point x="1306" y="90" type="curve"/>
      <point x="1344" y="59"/>
      <point x="1393" y="42"/>
    </contour>
  </outline>
</glyph>
<glyph name="t" format="1">
  <advance width="569"/>
  <unicode hex="0074"/>
  <outline>
    <contour>
      <point x="532" y="167" type="curve"/>
      <point x="571" y="167" type="line"/>
      <point x="551" y="104"/>
      <point x="518" y="54"/>
      <point x="471" y="18" type="curve" smooth="yes"/>
      <point x="430" y="-14"/>
      <point x="388" y="-30"/>
      <point x="343" y="-30" type="curve" smooth="yes"/>
      <point x="222" y="-30"/>
      <point x="162" y="51"/>
      <point x="162" y="213" type="curve" smooth="yes"/>
      <point x="162" y="847" type="line"/>
      <point x="16" y="847" type="line"/>
      <point x="16" y="879" type="line"/>
      <point x="69" y="898"/>
      <point x="125" y="944"/>
      <point x="185" y="1015" type="curve" smooth="yes"/>
      <point x="221" y="1057"/>
      <point x="259" y="1125"/>
      <point x="299" y="1218" type="curve"/>
      <point x="329" y="1218" type="line"/>
      <point x="329" y="916" type="line"/>
      <point x="544" y="916" type="line"/>
      <point x="544" y="847" type="line"/>
      <point x="329" y="847" type="line"/>
      <point x="329" y="236" type="line" smooth="yes"/>
      <point x="329" y="137"/>
      <point x="359" y="87"/>
      <point x="420" y="85" type="curve" smooth="yes"/>
      <point x="469" y="83"/>
      <point x="507" y="110"/>
    </contour>
  </outline>
</glyph>
<glyph name="v" format="1">
  <advance width="1024"/>
  <unicode hex="0076"/>
  <outline>
    <contour>
      <point x="1007" y="916" type="line"/>
      <point x="1007" y="879" type="line"/>
      <point x="974" y="877"/>
      <point x="949" y="870"/>
      <point x="932" y="859" type="curve"/>
      <point x="909" y="837"/>
      <point x="889" y="804"/>
      <point x="871" y="759" type="curve" smooth="yes"/>
      <point x="546" y="-30" type="line"/>
      <point x="504" y="-30" type="line"/>
      <point x="175" y="747" type="line" smooth="yes"/>
      <point x="152" y="800"/>
      <point x="122" y="839"/>
      <point x="85" y="863" type="curve"/>
      <point x="76" y="867"/>
      <point x="53" y="872"/>
      <point x="16" y="879" type="curve"/>
      <point x="16" y="916" type="line"/>
      <point x="449" y="916" type="line"/>
      <point x="449" y="879" type="line"/>
      <point x="420" y="879" type="line" smooth="yes"/>
      <point x="391" y="879"/>
      <point x="372" y="873"/>
      <point x="361" y="861" type="curve" smooth="yes"/>
      <point x="347" y="846"/>
      <point x="340" y="828"/>
      <point x="340" y="806" type="curve" smooth="yes"/>
      <point x="340" y="784"/>
      <point x="347" y="757"/>
      <point x="361" y="725" type="curve" smooth="yes"/>
      <point x="573" y="221" type="line"/>
      <point x="788" y="747" type="line" smooth="yes"/>
      <point x="811" y="802"/>
      <point x="816" y="838"/>
      <point x="804" y="855" type="curve" smooth="yes"/>
      <point x="793" y="871"/>
      <point x="760" y="879"/>
      <point x="707" y="879" type="curve"/>
      <point x="707" y="916" type="line"/>
    </contour>
  </outline>
</glyph>
<glyph name="y" format="1">
  <advance width="1024"/>
  <unicode hex="0079"/>
  <outline>
    <contour>
      <point x="1013" y="916" type="line"/>
      <point x="1013" y="879" type="line"/>
      <point x="981" y="877"/>
      <point x="957" y="868"/>
      <point x="941" y="853" type="curve" smooth="yes"/>
      <point x="922" y="835"/>
      <point x="900" y="798"/>
      <point x="877" y="741" type="curve" smooth="yes"/>
      <point x="504" y="-173" type="line" smooth="yes"/>
      <point x="470" y="-258"/>
      <point x="424" y="-324"/>
      <point x="366" y="-373" type="curve" smooth="yes"/>
      <point x="311" y="-420"/>
      <point x="254" y="-443"/>
      <point x="195" y="-443" type="curve" smooth="yes"/>
      <point x="156" y="-443"/>
      <point x="124" y="-432"/>
      <point x="98" y="-410" type="curve" smooth="yes"/>
      <point x="72" y="-388"/>
      <point x="59" y="-361"/>
      <point x="59" y="-329" type="curve" smooth="yes"/>
      <point x="59" y="-268"/>
      <point x="93" y="-238"/>
      <point x="162" y="-238" type="curve" smooth="yes"/>
      <point x="179" y="-238"/>
      <point x="205" y="-244"/>
      <point x="242" y="-256" type="curve" smooth="yes"/>
      <point x="279" y="-268"/>
      <point x="298" y="-274"/>
      <point x="301" y="-274" type="curve" smooth="yes"/>
      <point x="352" y="-274"/>
      <point x="398" y="-223"/>
      <point x="439" y="-122" type="curve" smooth="yes"/>
      <point x="504" y="37" type="line"/>
      <point x="175" y="727" type="line" smooth="yes"/>
      <point x="156" y="768"/>
      <point x="138" y="799"/>
      <point x="122" y="818" type="curve" smooth="yes"/>
      <point x="91" y="855"/>
      <point x="55" y="876"/>
      <point x="12" y="879" type="curve"/>
      <point x="12" y="916" type="line"/>
      <point x="439" y="916" type="line"/>
      <point x="439" y="879" type="line"/>
      <point x="418" y="879" type="line" smooth="yes"/>
      <point x="357" y="879"/>
      <point x="327" y="857"/>
      <point x="327" y="812" type="curve" smooth="yes"/>
      <point x="327" y="786"/>
      <point x="338" y="750"/>
      <point x="361" y="703" type="curve" smooth="yes"/>
      <point x="583" y="242" type="line"/>
      <point x="788" y="749" type="line"/>
      <point x="813" y="798"/>
      <point x="817" y="834"/>
      <point x="800" y="857" type="curve" smooth="yes"/>
      <point x="789" y="872"/>
      <point x="761" y="879"/>
      <point x="715" y="879" type="curve"/>
      <point x="715" y="916" type="line"/>
    </contour>
  </outline>
</glyph>
<glyph name="z" format="1">
  <advance width="910"/>
  <unicode hex="007A"/>
  <outline>
    <contour>
      <point x="877" y="916" type="line"/>
      <point x="877" y="879" type="line"/>
      <point x="262" y="67" type="line"/>
      <point x="597" y="67" type="line" smooth="yes"/>
      <point x="666" y="67"/>
      <point x="713" y="73"/>
      <point x="737" y="85" type="curve" smooth="yes"/>
      <point x="764" y="98"/>
      <point x="782" y="112"/>
      <point x="790" y="127" type="curve" smooth="yes"/>
      <point x="805" y="152"/>
      <point x="817" y="203"/>
      <point x="826" y="280" type="curve"/>
      <point x="861" y="280" type="line"/>
      <point x="849" y="0" type="line"/>
      <point x="41" y="0" type="line"/>
      <point x="41" y="37" type="line"/>
      <point x="650" y="847" type="line"/>
      <point x="349" y="847" type="line" smooth="yes"/>
      <point x="291" y="847"/>
      <point x="248" y="842"/>
      <point x="221" y="833" type="curve"/>
      <point x="177" y="814"/>
      <point x="151" y="757"/>
      <point x="142" y="662" type="curve"/>
      <point x="102" y="662" type="line"/>
      <point x="108" y="916" type="line"/>
    </contour>
  </outline>
</glyph>
<glyph name="currency" format="1">
  <advance width="1182"/>
  <unicode hex="00A4"/>
  <outline>
    <contour>
      <point x="920" y="589" type="curve"/>
      <point x="1123" y="386" type="line"/>
      <point x="1052" y="315" type="line"/>
      <point x="849" y="518" type="line"/>
      <point x="778" y="457"/>
      <point x="693" y="426"/>
      <point x="595" y="426" type="curve" smooth="yes"/>
      <point x="492" y="426"/>
      <point x="404" y="457"/>
      <point x="333" y="518" type="curve"/>
      <point x="130" y="315" type="line"/>
      <point x="59" y="386" type="line"/>
      <point x="262" y="589" type="line"/>
      <point x="204" y="661"/>
      <point x="175" y="745"/>
      <point x="175" y="841" type="curve" smooth="yes"/>
      <point x="175" y="948"/>
      <point x="205" y="1035"/>
      <point x="266" y="1101" type="curve"/>
      <point x="59" y="1308" type="line"/>
      <point x="130" y="1379" type="line"/>
      <point x="337" y="1172" type="line"/>
      <point x="409" y="1230"/>
      <point x="495" y="1259"/>
      <point x="595" y="1259" type="curve" smooth="yes"/>
      <point x="691" y="1259"/>
      <point x="774" y="1229"/>
      <point x="843" y="1170" type="curve"/>
      <point x="1052" y="1379" type="line"/>
      <point x="1123" y="1308" type="line"/>
      <point x="918" y="1103" type="line"/>
      <point x="977" y="1029"/>
      <point x="1007" y="942"/>
      <point x="1007" y="843" type="curve" smooth="yes"/>
      <point x="1007" y="743"/>
      <point x="978" y="658"/>
    </contour>
    <contour>
      <point x="894" y="843" type="curve" smooth="yes"/>
      <point x="894" y="926"/>
      <point x="865" y="997"/>
      <point x="806" y="1057" type="curve" smooth="yes"/>
      <point x="747" y="1117"/>
      <point x="677" y="1147"/>
      <point x="595" y="1147" type="curve" smooth="yes"/>
      <point x="509" y="1147"/>
      <point x="436" y="1117"/>
      <point x="377" y="1058" type="curve" smooth="yes"/>
      <point x="318" y="999"/>
      <point x="288" y="927"/>
      <point x="288" y="841" type="curve" smooth="yes"/>
      <point x="288" y="757"/>
      <point x="318" y="685"/>
      <point x="378" y="626" type="curve" smooth="yes"/>
      <point x="438" y="567"/>
      <point x="510" y="538"/>
      <point x="595" y="538" type="curve" smooth="yes"/>
      <point x="678" y="538"/>
      <point x="749" y="568"/>
      <point x="807" y="628" type="curve" smooth="yes"/>
      <point x="865" y="688"/>
      <point x="894" y="760"/>
    </contour>
  </outline>
</glyph>
<glyph name="uni1982" format="1">
  <advance width="1885"/>
  <unicode hex="1982"/>
  <outline>
    <contour>
      <point x="860" y="445" type="curve" smooth="yes"/>
      <point x="860" y="616"/>
      <point x="732" y="740"/>
      <point x="555" y="740" type="curve" smooth="yes"/>
      <point x="429" y="740"/>
      <point x="320" y="620"/>
      <point x="320" y="480" type="curve" smooth="yes"/>
      <point x="320" y="340"/>
      <point x="385" y="210"/>
      <point x="485" y="210" type="curve" smooth="yes"/>
      <point x="496" y="210"/>
      <point x="511" y="211"/>
      <point x="520" y="213" type="curve" smooth="yes"/>
      <point x="531" y="215"/>
      <point x="543" y="215"/>
      <point x="547" y="207" type="curve" smooth="yes"/>
      <point x="633" y="23" type="line" smooth="yes"/>
      <point x="638" y="14"/>
      <point x="635" y="2"/>
      <point x="625" y="-2" type="curve" smooth="yes"/>
      <point x="594" y="-15"/>
      <point x="547" y="-20"/>
      <point x="515" y="-20" type="curve" smooth="yes"/>
      <point x="220" y="-19"/>
      <point x="70" y="268"/>
      <point x="70" y="480" type="curve" smooth="yes"/>
      <point x="70" y="722"/>
      <point x="228" y="970"/>
      <point x="545" y="970" type="curve" smooth="yes"/>
      <point x="699" y="970"/>
      <point x="861" y="891"/>
      <point x="942" y="768" type="curve"/>
      <point x="1023" y="891"/>
      <point x="1185" y="970"/>
      <point x="1340" y="970" type="curve" smooth="yes"/>
      <point x="1657" y="970"/>
      <point x="1815" y="722"/>
      <point x="1815" y="480" type="curve" smooth="yes"/>
      <point x="1815" y="268"/>
      <point x="1675" y="-19"/>
      <point x="1370" y="-20" type="curve" smooth="yes"/>
      <point x="1338" y="-20"/>
      <point x="1291" y="-15"/>
      <point x="1260" y="-2" type="curve" smooth="yes"/>
      <point x="1250" y="2"/>
      <point x="1247" y="14"/>
      <point x="1252" y="23" type="curve" smooth="yes"/>
      <point x="1338" y="207" type="line" smooth="yes"/>
      <point x="1342" y="215"/>
      <point x="1354" y="215"/>
      <point x="1365" y="213" type="curve" smooth="yes"/>
      <point x="1374" y="211"/>
      <point x="1389" y="210"/>
      <point x="1400" y="210" type="curve" smooth="yes"/>
      <point x="1500" y="210"/>
      <point x="1565" y="336"/>
      <point x="1565" y="480" type="curve" smooth="yes"/>
      <point x="1565" y="620"/>
      <point x="1456" y="740"/>
      <point x="1330" y="740" type="curve" smooth="yes"/>
      <point x="1153" y="740"/>
      <point x="1025" y="616"/>
      <point x="1025" y="445" type="curve" smooth="yes"/>
      <point x="1025" y="435"/>
      <point x="1019" y="425"/>
      <point x="1009" y="425" type="curve" smooth="yes"/>
      <point x="876" y="425" type="line" smooth="yes"/>
      <point x="868" y="425"/>
      <point x="860" y="435"/>
    </contour>
  </outline>
</glyph>
<glyph name="uni1983" format="1">
  <advance width="1254"/>
  <unicode hex="1983"/>
  <outline>
    <contour>
      <point x="48" y="-472" type="curve" smooth="yes"/>
      <point x="44" y="-462"/>
      <point x="52" y="-450"/>
      <point x="62" y="-446" type="curve" smooth="yes"/>
      <point x="94" y="-435" type="line" smooth="yes"/>
      <point x="102" y="-432"/>
      <point x="113" y="-442"/>
      <point x="119" y="-450" type="curve" smooth="yes"/>
      <point x="220" y="-583"/>
      <point x="383" y="-635"/>
      <point x="573" y="-635" type="curve" smooth="yes"/>
      <point x="820" y="-635"/>
      <point x="1009" y="-430"/>
      <point x="1009" y="-170" type="curve" smooth="yes"/>
      <point x="1009" y="151"/>
      <point x="821" y="360"/>
      <point x="524" y="360" type="curve" smooth="yes"/>
      <point x="387" y="360"/>
      <point x="234" y="303"/>
      <point x="234" y="215" type="curve" smooth="yes"/>
      <point x="234" y="137"/>
      <point x="387" y="90"/>
      <point x="519" y="90" type="curve" smooth="yes"/>
      <point x="776" y="90"/>
      <point x="1009" y="248"/>
      <point x="1009" y="490" type="curve" smooth="yes"/>
      <point x="1009" y="709"/>
      <point x="826" y="845"/>
      <point x="594" y="845" type="curve" smooth="yes"/>
      <point x="433" y="845"/>
      <point x="290" y="772"/>
      <point x="229" y="665" type="curve" smooth="yes"/>
      <point x="223" y="654"/>
      <point x="209" y="651"/>
      <point x="199" y="659" type="curve" smooth="yes"/>
      <point x="130" y="713" type="line" smooth="yes"/>
      <point x="120" y="721"/>
      <point x="117" y="734"/>
      <point x="124" y="745" type="curve" smooth="yes"/>
      <point x="211" y="892"/>
      <point x="387" y="970"/>
      <point x="594" y="970" type="curve" smooth="yes"/>
      <point x="929" y="970"/>
      <point x="1134" y="748"/>
      <point x="1134" y="490" type="curve" smooth="yes"/>
      <point x="1134" y="186"/>
      <point x="865" y="-20"/>
      <point x="519" y="-20" type="curve" smooth="yes"/>
      <point x="325" y="-20"/>
      <point x="124" y="72"/>
      <point x="124" y="215" type="curve" smooth="yes"/>
      <point x="124" y="379"/>
      <point x="325" y="470"/>
      <point x="524" y="470" type="curve" smooth="yes"/>
      <point x="891" y="470"/>
      <point x="1134" y="233"/>
      <point x="1134" y="-170" type="curve" smooth="yes"/>
      <point x="1134" y="-503"/>
      <point x="900" y="-740"/>
      <point x="573" y="-740" type="curve" smooth="yes"/>
      <point x="351" y="-740"/>
      <point x="126" y="-636"/>
    </contour>
  </outline>
</glyph>
<glyph name="uni1985" format="1">
  <advance width="1250"/>
  <unicode hex="1985"/>
  <outline>
    <contour>
      <point x="630" y="970" type="curve" smooth="yes"/>
      <point x="944" y="970"/>
      <point x="1170" y="766"/>
      <point x="1170" y="450" type="curve" smooth="yes"/>
      <point x="1170" y="219"/>
      <point x="1039" y="61"/>
      <point x="860" y="-20" type="curve" smooth="yes"/>
      <point x="850" y="-24"/>
      <point x="839" y="-23"/>
      <point x="834" y="-14" type="curve" smooth="yes"/>
      <point x="746" y="164" type="line" smooth="yes"/>
      <point x="741" y="172"/>
      <point x="745" y="188"/>
      <point x="755" y="190" type="curve" smooth="yes"/>
      <point x="850" y="208"/>
      <point x="920" y="337"/>
      <point x="920" y="450" type="curve" smooth="yes"/>
      <point x="920" y="627"/>
      <point x="792" y="740"/>
      <point x="630" y="740" type="curve" smooth="yes"/>
      <point x="481" y="740"/>
      <point x="340" y="622"/>
      <point x="340" y="440" type="curve" smooth="yes"/>
      <point x="340" y="339"/>
      <point x="398" y="221"/>
      <point x="485" y="180" type="curve" smooth="yes"/>
      <point x="497" y="174"/>
      <point x="499" y="160"/>
      <point x="491" y="150" type="curve"/>
      <point x="397" y="-14" type="line"/>
      <point x="389" y="-24"/>
      <point x="375" y="-28"/>
      <point x="365" y="-20" type="curve" smooth="yes"/>
      <point x="218" y="87"/>
      <point x="90" y="233"/>
      <point x="90" y="440" type="curve" smooth="yes"/>
      <point x="90" y="755"/>
      <point x="322" y="970"/>
    </contour>
  </outline>
</glyph>
<glyph name="uni1996" format="1">
  <advance width="1715"/>
  <unicode hex="1996"/>
  <outline>
    <contour>
      <point x="1580" y="-445" type="curve" smooth="yes"/>
      <point x="1570" y="-611"/>
      <point x="1426" y="-740"/>
      <point x="1225" y="-740" type="curve" smooth="yes"/>
      <point x="1010" y="-740"/>
      <point x="860" y="-587"/>
      <point x="860" y="-435" type="curve" smooth="yes"/>
      <point x="860" y="-232"/>
      <point x="1049" y="-121"/>
      <point x="1235" y="-141" type="curve" smooth="yes"/>
      <point x="1245" y="-142"/>
      <point x="1255" y="-133"/>
      <point x="1255" y="-124" type="curve" smooth="yes"/>
      <point x="1255" y="30" type="line"/>
      <point x="1365" y="30" type="line"/>
      <point x="1365" y="-227" type="line" smooth="yes"/>
      <point x="1365" y="-238"/>
      <point x="1356" y="-246"/>
      <point x="1346" y="-245" type="curve" smooth="yes"/>
      <point x="1157" y="-225"/>
      <point x="985" y="-271"/>
      <point x="985" y="-435" type="curve" smooth="yes"/>
      <point x="985" y="-541"/>
      <point x="1091" y="-633"/>
      <point x="1230" y="-635" type="curve" smooth="yes"/>
      <point x="1413" y="-638"/>
      <point x="1495" y="-535"/>
      <point x="1505" y="-445" type="curve" smooth="yes"/>
      <point x="1506" y="-438"/>
      <point x="1512" y="-428"/>
      <point x="1523" y="-428" type="curve" smooth="yes"/>
      <point x="1563" y="-428" type="line" smooth="yes"/>
      <point x="1572" y="-428"/>
      <point x="1581" y="-436"/>
    </contour>
    <contour>
      <point x="530" y="105" type="curve" smooth="yes"/>
      <point x="706" y="105"/>
      <point x="762" y="258"/>
      <point x="795" y="475" type="curve" smooth="yes"/>
      <point x="831" y="709"/>
      <point x="904" y="970"/>
      <point x="1205" y="970" type="curve" smooth="yes"/>
      <point x="1462" y="970"/>
      <point x="1595" y="742"/>
      <point x="1595" y="480" type="curve" smooth="yes"/>
      <point x="1595" y="208"/>
      <point x="1505" y="-19"/>
      <point x="1260" y="-20" type="curve" smooth="yes"/>
      <point x="1228" y="-20"/>
      <point x="1191" y="-15"/>
      <point x="1160" y="-2" type="curve" smooth="yes"/>
      <point x="1150" y="2"/>
      <point x="1147" y="14"/>
      <point x="1152" y="23" type="curve" smooth="yes"/>
      <point x="1198" y="102" type="line" smooth="yes"/>
      <point x="1202" y="110"/>
      <point x="1214" y="110"/>
      <point x="1225" y="108" type="curve" smooth="yes"/>
      <point x="1234" y="106"/>
      <point x="1249" y="105"/>
      <point x="1260" y="105" type="curve" smooth="yes"/>
      <point x="1420" y="105"/>
      <point x="1470" y="280"/>
      <point x="1470" y="480" type="curve" smooth="yes"/>
      <point x="1470" y="680"/>
      <point x="1361" y="845"/>
      <point x="1205" y="845" type="curve" smooth="yes"/>
      <point x="1006" y="845"/>
      <point x="952" y="659"/>
      <point x="925" y="475" type="curve" smooth="yes"/>
      <point x="884" y="198"/>
      <point x="788" y="-20"/>
      <point x="530" y="-20" type="curve" smooth="yes"/>
      <point x="253" y="-20"/>
      <point x="120" y="168"/>
      <point x="120" y="470" type="curve" smooth="yes"/>
      <point x="120" y="692"/>
      <point x="203" y="920"/>
      <point x="415" y="970" type="curve" smooth="yes"/>
      <point x="428" y="973"/>
      <point x="436" y="973"/>
      <point x="440" y="965" type="curve" smooth="yes"/>
      <point x="485" y="885" type="line" smooth="yes"/>
      <point x="490" y="877"/>
      <point x="489" y="863"/>
      <point x="475" y="860" type="curve" smooth="yes"/>
      <point x="298" y="815"/>
      <point x="245" y="630"/>
      <point x="245" y="470" type="curve" smooth="yes"/>
      <point x="245" y="230"/>
      <point x="354" y="105"/>
    </contour>
  </outline>
</glyph>
<glyph name="uni199F" format="1">
  <advance width="1755"/>
  <unicode hex="199F"/>
  <outline>
    <contour>
      <point x="1635" y="470" type="curve" smooth="yes"/>
      <point x="1635" y="168"/>
      <point x="1497" y="-20"/>
      <point x="1230" y="-20" type="curve" smooth="yes"/>
      <point x="972" y="-20"/>
      <point x="876" y="198"/>
      <point x="835" y="475" type="curve" smooth="yes"/>
      <point x="808" y="659"/>
      <point x="754" y="845"/>
      <point x="555" y="845" type="curve" smooth="yes"/>
      <point x="359" y="845"/>
      <point x="245" y="640"/>
      <point x="245" y="440" type="curve" smooth="yes"/>
      <point x="245" y="240"/>
      <point x="325" y="105"/>
      <point x="485" y="105" type="curve" smooth="yes"/>
      <point x="496" y="105"/>
      <point x="511" y="106"/>
      <point x="520" y="108" type="curve" smooth="yes"/>
      <point x="531" y="110"/>
      <point x="543" y="110"/>
      <point x="547" y="102" type="curve" smooth="yes"/>
      <point x="593" y="23" type="line" smooth="yes"/>
      <point x="598" y="14"/>
      <point x="595" y="2"/>
      <point x="585" y="-2" type="curve" smooth="yes"/>
      <point x="554" y="-15"/>
      <point x="517" y="-20"/>
      <point x="485" y="-20" type="curve" smooth="yes"/>
      <point x="240" y="-19"/>
      <point x="120" y="168"/>
      <point x="120" y="440" type="curve" smooth="yes"/>
      <point x="120" y="702"/>
      <point x="258" y="970"/>
      <point x="555" y="970" type="curve" smooth="yes"/>
      <point x="856" y="970"/>
      <point x="929" y="709"/>
      <point x="965" y="475" type="curve" smooth="yes"/>
      <point x="998" y="258"/>
      <point x="1054" y="105"/>
      <point x="1230" y="105" type="curve" smooth="yes"/>
      <point x="1396" y="105"/>
      <point x="1510" y="230"/>
      <point x="1510" y="470" type="curve" smooth="yes"/>
      <point x="1510" y="670"/>
      <point x="1440" y="845"/>
      <point x="1280" y="845" type="curve" smooth="yes"/>
      <point x="1269" y="845"/>
      <point x="1254" y="844"/>
      <point x="1245" y="842" type="curve" smooth="yes"/>
      <point x="1234" y="840"/>
      <point x="1222" y="840"/>
      <point x="1218" y="848" type="curve" smooth="yes"/>
      <point x="1172" y="927" type="line" smooth="yes"/>
      <point x="1167" y="936"/>
      <point x="1170" y="948"/>
      <point x="1180" y="952" type="curve" smooth="yes"/>
      <point x="1211" y="965"/>
      <point x="1248" y="970"/>
      <point x="1280" y="970" type="curve" smooth="yes"/>
      <point x="1525" y="969"/>
      <point x="1635" y="742"/>
    </contour>
  </outline>
</glyph>
<glyph name="uni19A4" format="1">
  <advance width="1188"/>
  <unicode hex="19A4"/>
  <outline>
    <contour>
      <point x="237" y="1110" type="curve" smooth="yes"/>
      <point x="227" y="1110"/>
      <point x="217" y="1117"/>
      <point x="217" y="1128" type="curve" smooth="yes"/>
      <point x="217" y="1288" type="line" smooth="yes"/>
      <point x="217" y="1297"/>
      <point x="227" y="1305"/>
      <point x="237" y="1305" type="curve" smooth="yes"/>
      <point x="334" y="1305"/>
      <point x="462" y="1334"/>
      <point x="462" y="1505" type="curve" smooth="yes"/>
      <point x="462" y="1515"/>
      <point x="470" y="1525"/>
      <point x="479" y="1525" type="curve" smooth="yes"/>
      <point x="609" y="1525" type="line" smooth="yes"/>
      <point x="620" y="1525"/>
      <point x="627" y="1515"/>
      <point x="627" y="1505" type="curve" smooth="yes"/>
      <point x="627" y="1310"/>
      <point x="443" y="1110"/>
    </contour>
    <contour>
      <point x="852" y="1110" type="curve" smooth="yes"/>
      <point x="646" y="1110"/>
      <point x="462" y="1310"/>
      <point x="462" y="1505" type="curve" smooth="yes"/>
      <point x="462" y="1515"/>
      <point x="469" y="1525"/>
      <point x="480" y="1525" type="curve" smooth="yes"/>
      <point x="610" y="1525" type="line" smooth="yes"/>
      <point x="619" y="1525"/>
      <point x="627" y="1515"/>
      <point x="627" y="1505" type="curve" smooth="yes"/>
      <point x="627" y="1334"/>
      <point x="755" y="1305"/>
      <point x="852" y="1305" type="curve" smooth="yes"/>
      <point x="862" y="1305"/>
      <point x="872" y="1297"/>
      <point x="872" y="1288" type="curve" smooth="yes"/>
      <point x="872" y="1128" type="line" smooth="yes"/>
      <point x="872" y="1117"/>
      <point x="862" y="1110"/>
    </contour>
    <contour>
      <point x="536" y="-20" type="curve" smooth="yes"/>
      <point x="526" y="-20"/>
      <point x="516" y="-12"/>
      <point x="516" y="-3" type="curve" smooth="yes"/>
      <point x="516" y="142" type="line" smooth="yes"/>
      <point x="516" y="153"/>
      <point x="526" y="160"/>
      <point x="536" y="160" type="curve" smooth="yes"/>
      <point x="796" y="160"/>
      <point x="1088" y="8"/>
      <point x="1088" y="-265" type="curve" smooth="yes"/>
      <point x="1088" y="-538"/>
      <point x="870" y="-740"/>
      <point x="563" y="-740" type="curve" smooth="yes"/>
      <point x="335" y="-740"/>
      <point x="112" y="-574"/>
      <point x="62" y="-442" type="curve" smooth="yes"/>
      <point x="58" y="-432"/>
      <point x="66" y="-420"/>
      <point x="76" y="-416" type="curve" smooth="yes"/>
      <point x="178" y="-375" type="line" smooth="yes"/>
      <point x="186" y="-372"/>
      <point x="196" y="-381"/>
      <point x="203" y="-390" type="curve" smooth="yes"/>
      <point x="268" y="-480"/>
      <point x="412" y="-550"/>
      <point x="538" y="-550" type="curve" smooth="yes"/>
      <point x="705" y="-550"/>
      <point x="838" y="-435"/>
      <point x="838" y="-265" type="curve" smooth="yes"/>
      <point x="838" y="-108"/>
      <point x="680" y="-20"/>
    </contour>
    <contour>
      <point x="283" y="601" type="curve" smooth="yes"/>
      <point x="274" y="593"/>
      <point x="263" y="587"/>
      <point x="253" y="595" type="curve" smooth="yes"/>
      <point x="102" y="721" type="line" smooth="yes"/>
      <point x="92" y="729"/>
      <point x="88" y="743"/>
      <point x="96" y="753" type="curve" smooth="yes"/>
      <point x="178" y="847"/>
      <point x="353" y="970"/>
      <point x="569" y="970" type="curve" smooth="yes"/>
      <point x="866" y="970"/>
      <point x="1079" y="762"/>
      <point x="1079" y="480" type="curve" smooth="yes"/>
      <point x="1079" y="238"/>
      <point x="891" y="-19"/>
      <point x="536" y="-20" type="curve" smooth="yes"/>
      <point x="526" y="-20"/>
      <point x="516" y="-12"/>
      <point x="516" y="-3" type="curve" smooth="yes"/>
      <point x="516" y="142" type="line" smooth="yes"/>
      <point x="516" y="153"/>
      <point x="526" y="160"/>
      <point x="536" y="160" type="curve" smooth="yes"/>
      <point x="756" y="160"/>
      <point x="829" y="350"/>
      <point x="829" y="480" type="curve" smooth="yes"/>
      <point x="829" y="650"/>
      <point x="685" y="740"/>
      <point x="569" y="740" type="curve" smooth="yes"/>
      <point x="466" y="740"/>
      <point x="361" y="678"/>
    </contour>
  </outline>
</glyph>
<glyph name="uni19B1" format="1">
  <advance width="1205"/>
  <unicode hex="19B1"/>
  <outline>
    <contour>
      <point x="555" y="-20" type="curve" smooth="yes"/>
      <point x="398" y="-20"/>
      <point x="212" y="33"/>
      <point x="105" y="175" type="curve" smooth="yes"/>
      <point x="97" y="185"/>
      <point x="100" y="200"/>
      <point x="111" y="207" type="curve" smooth="yes"/>
      <point x="180" y="251" type="line" smooth="yes"/>
      <point x="191" y="258"/>
      <point x="202" y="255"/>
      <point x="210" y="245" type="curve" smooth="yes"/>
      <point x="291" y="143"/>
      <point x="424" y="105"/>
      <point x="555" y="105" type="curve" smooth="yes"/>
      <point x="792" y="105"/>
      <point x="970" y="238"/>
      <point x="970" y="470" type="curve" smooth="yes"/>
      <point x="970" y="709"/>
      <point x="777" y="845"/>
      <point x="565" y="845" type="curve" smooth="yes"/>
      <point x="404" y="845"/>
      <point x="291" y="782"/>
      <point x="210" y="675" type="curve" smooth="yes"/>
      <point x="203" y="665"/>
      <point x="191" y="662"/>
      <point x="180" y="669" type="curve" smooth="yes"/>
      <point x="111" y="713" type="line" smooth="yes"/>
      <point x="100" y="720"/>
      <point x="97" y="735"/>
      <point x="105" y="745" type="curve" smooth="yes"/>
      <point x="222" y="892"/>
      <point x="368" y="970"/>
      <point x="565" y="970" type="curve" smooth="yes"/>
      <point x="880" y="970"/>
      <point x="1095" y="748"/>
      <point x="1095" y="470" type="curve" smooth="yes"/>
      <point x="1095" y="186"/>
      <point x="881" y="-20"/>
    </contour>
  </outline>
</glyph>
<glyph name="uni19C0" format="1">
  <advance width="1740"/>
  <unicode hex="19C0"/>
  <outline>
    <contour>
      <point x="1650" y="930" type="curve" smooth="yes"/>
      <point x="1650" y="-305" type="line" smooth="yes"/>
      <point x="1650" y="-543"/>
      <point x="1488" y="-740"/>
      <point x="1240" y="-740" type="curve" smooth="yes"/>
      <point x="982" y="-740"/>
      <point x="835" y="-543"/>
      <point x="835" y="-305" type="curve" smooth="yes"/>
      <point x="835" y="291" type="line"/>
      <point x="1086" y="770" type="line"/>
      <point x="1086" y="-305" type="line" smooth="yes"/>
      <point x="1086" y="-437"/>
      <point x="1151" y="-510"/>
      <point x="1240" y="-510" type="curve" smooth="yes"/>
      <point x="1329" y="-510"/>
      <point x="1400" y="-436"/>
      <point x="1400" y="-305" type="curve" smooth="yes"/>
      <point x="1400" y="930" type="line" smooth="yes"/>
      <point x="1400" y="940"/>
      <point x="1407" y="950"/>
      <point x="1418" y="950" type="curve" smooth="yes"/>
      <point x="1633" y="950" type="line" smooth="yes"/>
      <point x="1642" y="950"/>
      <point x="1650" y="940"/>
    </contour>
    <contour>
      <point x="615" y="1570" type="curve" smooth="yes"/>
      <point x="932" y="1570"/>
      <point x="1125" y="1314"/>
      <point x="1125" y="770" type="curve" smooth="yes"/>
      <point x="1125" y="234"/>
      <point x="942" y="-20"/>
      <point x="615" y="-20" type="curve" smooth="yes"/>
      <point x="278" y="-20"/>
      <point x="100" y="238"/>
      <point x="100" y="770" type="curve" smooth="yes"/>
      <point x="100" y="1312"/>
      <point x="288" y="1570"/>
    </contour>
    <contour>
      <point x="615" y="1340" type="curve" smooth="yes"/>
      <point x="459" y="1340"/>
      <point x="350" y="1201"/>
      <point x="350" y="770" type="curve" smooth="yes"/>
      <point x="350" y="320"/>
      <point x="469" y="210"/>
      <point x="615" y="210" type="curve" smooth="yes"/>
      <point x="762" y="210"/>
      <point x="875" y="330"/>
      <point x="875" y="770" type="curve" smooth="yes"/>
      <point x="875" y="1201"/>
      <point x="752" y="1340"/>
    </contour>
    <contour>
      <point x="975" y="600" type="curve"/>
      <point x="995" y="805" type="line"/>
      <point x="931" y="908"/>
      <point x="769" y="970"/>
      <point x="615" y="970" type="curve" smooth="yes"/>
      <point x="447" y="970"/>
      <point x="280" y="906"/>
      <point x="220" y="795" type="curve"/>
      <point x="245" y="600" type="line"/>
      <point x="291" y="737"/>
      <point x="459" y="810"/>
      <point x="615" y="810" type="curve" smooth="yes"/>
      <point x="762" y="810"/>
      <point x="934" y="745"/>
    </contour>
  </outline>
</glyph>
<glyph name="uni19C1" format="1">
  <advance width="1185"/>
  <unicode hex="19C1"/>
  <outline>
    <contour>
      <point x="995" y="-505" type="curve"/>
      <point x="870" y="-505" type="line"/>
      <point x="870" y="-440"/>
      <point x="826" y="-400"/>
      <point x="760" y="-400" type="curve" smooth="yes"/>
      <point x="694" y="-400"/>
      <point x="655" y="-440"/>
      <point x="655" y="-505" type="curve" smooth="yes"/>
      <point x="655" y="-570"/>
      <point x="694" y="-615"/>
      <point x="760" y="-615" type="curve" smooth="yes"/>
      <point x="826" y="-615"/>
      <point x="870" y="-570"/>
      <point x="870" y="-505" type="curve" smooth="yes"/>
      <point x="870" y="234" type="line"/>
      <point x="995" y="470" type="line"/>
      <point x="995" y="-505" type="line" smooth="yes"/>
      <point x="995" y="-642"/>
      <point x="889" y="-735"/>
      <point x="760" y="-735" type="curve" smooth="yes"/>
      <point x="631" y="-735"/>
      <point x="535" y="-643"/>
      <point x="535" y="-505" type="curve" smooth="yes"/>
      <point x="535" y="-364"/>
      <point x="630" y="-280"/>
      <point x="750" y="-280" type="curve" smooth="yes"/>
      <point x="864" y="-280"/>
      <point x="975" y="-430"/>
    </contour>
    <contour>
      <point x="575" y="970" type="curve" smooth="yes"/>
      <point x="862" y="970"/>
      <point x="1035" y="773"/>
      <point x="1035" y="470" type="curve" smooth="yes"/>
      <point x="1035" y="187"/>
      <point x="872" y="-20"/>
      <point x="575" y="-20" type="curve" smooth="yes"/>
      <point x="268" y="-20"/>
      <point x="110" y="188"/>
      <point x="110" y="470" type="curve" smooth="yes"/>
      <point x="110" y="762"/>
      <point x="278" y="970"/>
    </contour>
    <contour>
      <point x="575" y="845" type="curve" smooth="yes"/>
      <point x="364" y="845"/>
      <point x="235" y="711"/>
      <point x="235" y="470" type="curve" smooth="yes"/>
      <point x="235" y="230"/>
      <point x="364" y="105"/>
      <point x="575" y="105" type="curve" smooth="yes"/>
      <point x="786" y="105"/>
      <point x="910" y="240"/>
      <point x="910" y="470" type="curve" smooth="yes"/>
      <point x="910" y="711"/>
      <point x="787" y="845"/>
    </contour>
  </outline>
</glyph>
<glyph name="quoteright" format="1">
  <advance width="407"/>
  <unicode hex="2019"/>
  <outline>
    <contour>
      <point x="316" y="1234" type="curve" smooth="yes"/>
      <point x="316" y="1132"/>
      <point x="285" y="1035"/>
      <point x="222" y="944" type="curve" smooth="yes"/>
      <point x="171" y="869"/>
      <point x="132" y="831"/>
      <point x="106" y="831" type="curve"/>
      <point x="102" y="834" type="line"/>
      <point x="101" y="837"/>
      <point x="114" y="855"/>
      <point x="140" y="890" type="curve" smooth="yes"/>
      <point x="173" y="933"/>
      <point x="199" y="974"/>
      <point x="217" y="1013" type="curve" smooth="yes"/>
      <point x="245" y="1073"/>
      <point x="259" y="1134"/>
      <point x="259" y="1195" type="curve" smooth="yes"/>
      <point x="259" y="1226"/>
      <point x="252" y="1242"/>
      <point x="239" y="1242" type="curve" smooth="yes"/>
      <point x="237" y="1242"/>
      <point x="229" y="1237"/>
      <point x="215" y="1227" type="curve" smooth="yes"/>
      <point x="202" y="1218"/>
      <point x="190" y="1213"/>
      <point x="181" y="1213" type="curve" smooth="yes"/>
      <point x="158" y="1213"/>
      <point x="138" y="1225"/>
      <point x="121" y="1250" type="curve" smooth="yes"/>
      <point x="104" y="1275"/>
      <point x="96" y="1305"/>
      <point x="96" y="1338" type="curve" smooth="yes"/>
      <point x="96" y="1373"/>
      <point x="107" y="1402"/>
      <point x="128" y="1425" type="curve" smooth="yes"/>
      <point x="147" y="1445"/>
      <point x="168" y="1455"/>
      <point x="192" y="1455" type="curve" smooth="yes"/>
      <point x="275" y="1455"/>
      <point x="316" y="1381"/>
    </contour>
  </outline>
</glyph>
